Land_normalized_Motion_pl04
version=1
nRows=12
nColumns=43
inDegrees=yes
endheader
time		pelvis_tilt		pelvis_list		pelvis_rotation		pelvis_tx		pelvis_ty		pelvis_tz		hip_flexion_r		hip_adduction_r		hip_rotation_r		knee_angle_r		ankle_angle_r		subtalar_angle_r		mtp_angle_r		hip_flexion_l		hip_adduction_l		hip_rotation_l		knee_angle_l		ankle_angle_l		subtalar_angle_l		mtp_angle_l		lumbar_extension		lumbar_bending		lumbar_rotation		neck_flexion		neck_lateral_bending		neck_rotation		arm_flex_r		arm_add_r		arm_rot_r		elbow_flex_r		pro_sup_r		wrist_flex_r		wrist_dev_r		hand_finger_flex_r		arm_flex_l		arm_add_l		arm_rot_l		elbow_flex_l		pro_sup_l		wrist_flex_l		wrist_dev_l		hand_finger_flex_l		
0.632500		1.147469		5.829858		86.310551		0.011662		1.031907		0.646700		23.875662		-2.296279		-11.921603		-22.910338		-18.679484		0.177583		1.767213		25.383740		-8.477963		-12.237382		-23.522708		-26.928859		7.081218		14.541443		-34.996862		-1.150742		1.989176		-11.730829		-0.570723		0.950795		-42.717752		-31.993909		-25.675942		98.893369		114.261243		-12.053180		-22.808470		-10.155059		-36.161957		-17.433122		-22.574236		61.700639		105.424573		-30.144361		-12.337637		-2.830456		
0.635429		1.121315		5.985006		86.491135		0.011081		1.019885		0.641515		24.468083		-2.423954		-11.435999		-24.385848		-18.688238		0.091130		1.752017		26.011739		-8.408729		-11.407840		-25.188870		-27.211639		6.758830		14.371891		-35.204081		-1.073333		1.902816		-11.484361		-0.632018		0.934313		-42.617773		-31.460100		-25.843654		99.099020		114.295083		-12.156921		-23.029852		-10.160120		-36.026750		-17.153422		-23.020864		61.944634		105.565255		-30.410168		-12.442286		-2.903242		
0.638359		1.083665		6.055373		86.676896		0.010480		1.007706		0.636477		25.217047		-2.534439		-10.888328		-25.960288		-18.716547		-0.049793		1.702860		26.798065		-8.266819		-10.405892		-26.940416		-27.503867		6.165323		14.155125		-35.364690		-1.008179		1.805669		-11.026331		-0.625438		0.868844		-42.330063		-30.896350		-25.979526		99.156393		114.376930		-12.225799		-23.311213		-10.141047		-35.742483		-16.890143		-23.436723		62.045706		105.788779		-30.661117		-12.514924		-2.901578		
0.641288		1.048702		6.178947		86.848358		0.009856		0.995530		0.631482		25.936073		-2.630328		-10.334609		-27.570216		-18.848980		-0.140637		1.653108		27.543430		-8.103362		-9.450876		-28.692491		-27.912393		5.559186		13.948945		-35.592243		-0.942842		1.732108		-10.601095		-0.641050		0.805733		-41.996975		-30.382459		-26.110097		99.202581		114.478679		-12.285706		-23.627453		-10.113314		-35.415306		-16.636759		-23.818152		62.177288		106.051877		-30.918096		-12.575648		-2.844430		
0.644217		1.034654		6.402582		87.023096		0.009238		0.983332		0.626538		26.590182		-2.700270		-9.735983		-29.259257		-18.889938		-0.067468		1.735254		28.201235		-7.967165		-8.596309		-30.463249		-28.232644		5.274477		13.962600		-35.952552		-0.850446		1.669675		-10.128324		-0.696202		0.749044		-41.685886		-29.953983		-26.242528		99.370214		114.526476		-12.365648		-23.873350		-10.115915		-35.096312		-16.412687		-24.162186		62.420284		106.193717		-31.195581		-12.623040		-2.810839		
0.647146		1.019385		6.613352		87.175777		0.008620		0.971023		0.621670		27.299934		-2.731738		-9.051521		-31.038552		-18.635120		0.077835		1.997469		28.901078		-7.801061		-7.734238		-32.285109		-28.299825		5.015403		14.183088		-36.321888		-0.764368		1.614863		-9.575147		-0.740343		0.683721		-41.295490		-29.539817		-26.343493		99.536209		114.583812		-12.432455		-24.136484		-10.116715		-34.721212		-16.210333		-24.469072		62.627772		106.341303		-31.478726		-12.649123		-2.767307		
0.650076		0.987086		6.787661		87.311682		0.007970		0.958546		0.616925		28.087657		-2.734068		-8.253481		-32.962361		-17.765011		0.381727		2.657141		29.666468		-7.599958		-6.872585		-34.185056		-27.812673		4.873342		14.837261		-36.683996		-0.698373		1.586244		-8.913503		-0.802824		0.626454		-40.864260		-29.189824		-26.460615		99.670717		114.667669		-12.485559		-24.432118		-10.107394		-34.292444		-16.008291		-24.756947		62.880355		106.543594		-31.812473		-12.663307		-2.697717		
0.653005		0.964471		7.161771		87.381328		0.007346		0.946217		0.612059		28.686014		-2.819259		-7.682887		-35.113747		-16.121937		1.793021		5.656960		30.182858		-7.458297		-6.205938		-36.180374		-26.625005		5.354502		18.107846		-37.240987		-0.676269		1.585633		-8.372187		-0.761600		0.596058		-40.355428		-28.888557		-26.589946		99.793989		114.972371		-12.467803		-25.000000		-9.991029		-33.851708		-15.827671		-25.031322		63.136157		107.338172		-32.448086		-12.472264		-2.180766		
0.655934		0.950350		7.297054		87.464235		0.006797		0.933500		0.607591		29.613541		-2.666618		-6.651964		-37.432689		-14.221327		1.734150		9.824324		31.027345		-7.293181		-5.477463		-38.311011		-25.025929		5.417325		22.663936		-37.622624		-0.607226		1.537255		-7.606255		-0.864792		0.543748		-39.826202		-28.642566		-26.610528		100.153306		114.986053		-12.545104		-25.000000		-9.996142		-33.361673		-15.677796		-25.257108		63.391104		107.554199		-32.896675		-12.254851		-1.668954		
0.658864		0.941199		7.510981		87.547401		0.006226		0.920792		0.603050		30.428588		-2.545468		-5.758477		-39.941533		-11.444331		2.155610		16.295920		31.739456		-7.151560		-4.847208		-40.583069		-22.151875		5.935529		29.771949		-38.078474		-0.553201		1.564294		-6.799353		-0.955365		0.514203		-39.304907		-28.485824		-26.588102		100.415711		115.093465		-12.583322		-25.000000		-9.962564		-32.840002		-15.527361		-25.470414		63.764212		107.929993		-33.560362		-12.081560		-0.867798		
0.661793		0.980297		7.749092		87.538167		0.005757		0.908052		0.598724		31.324507		-2.315322		-4.899551		-42.832127		-7.362149		2.651475		16.958523		32.508585		-7.081414		-4.190684		-43.232367		-17.781018		6.843066		30.368137		-38.594306		-0.490132		1.616018		-6.033176		-1.118823		0.508788		-38.710393		-28.436786		-26.543297		100.781516		115.211901		-12.615823		-25.000000		-9.967523		-32.384528		-15.389659		-25.645360		64.161136		107.927427		-33.856380		-12.321047		-0.940860		
0.664722		0.996517		7.882660		87.539761		0.005303		0.895215		0.594623		32.406471		-2.074553		-4.098088		-45.929229		-3.037445		2.918908		17.274668		33.429347		-6.973527		-3.588952		-46.031382		-12.968188		7.593330		30.635419		-39.029426		-0.442744		1.640492		-5.198162		-1.264249		0.476282		-38.032910		-28.384264		-26.462222		101.135598		115.377528		-12.632887		-25.000000		-9.959996		-31.826367		-15.291163		-25.809087		64.494717		107.975365		-34.108565		-12.433770		-0.968734		
